Coordinates
version=1
nRows=16
nColumns=36
inDegrees=yes

Units are S.I. units (second, meters, Newtons, ...)
If the header above contains a line with 'inDegrees', this indicates whether rotational values are in degrees (yes) or radians (no).

endheader
time	pelvis_tilt	pelvis_list	pelvis_rotation	pelvis_tx	pelvis_ty	pelvis_tz	hip_flexion_r	hip_adduction_r	hip_rotation_r	knee_angle_r	knee_angle_r_beta	ankle_angle_r	subtalar_angle_r	mtp_angle_r	hip_flexion_l	hip_adduction_l	hip_rotation_l	knee_angle_l	knee_angle_l_beta	ankle_angle_l	subtalar_angle_l	mtp_angle_l	lumbar_extension	lumbar_bending	lumbar_rotation	arm_flex_r	arm_add_r	arm_rot_r	elbow_flex_r	pro_sup_r	arm_flex_l	arm_add_l	arm_rot_l	elbow_flex_l	pro_sup_l
      1.75416670	    -17.21429082	      0.00527391	      1.55618043	     -0.83664041	      1.23591053	     -0.11330237	     24.33270097	     -3.96825465	     -5.71894754	     41.79938505	      0.72953689	     17.66275410	    -21.37505767	     -7.49999987	     27.61043083	     -1.32736482	      0.96584995	     45.83247988	      0.79992768	     13.25181624	    -11.18094331	     -7.49999987	    -12.20512053	      2.36680349	     -0.55020365	     83.04420026	    -18.02933846	     21.04481336	     90.70154285	     81.34966203	     89.93653322	    -12.02124879	     23.05958575	     89.13395461	     62.05786005
      1.75833330	    -17.06407841	      0.24259319	      1.45428402	     -0.83042056	      1.24678984	     -0.10888373	     23.07407290	     -4.07094656	     -6.10248926	     39.82968989	      0.69515923	     16.16391193	    -20.62490092	     -7.49999987	     26.09311853	     -1.54881066	      0.30009284	     43.70758012	      0.76284118	     11.25345488	    -10.55039953	     -7.49999987	    -11.39380823	      2.14917598	     -0.00341267	     83.69549719	    -17.46145981	     22.24805271	     89.57129971	     81.88638792	     88.95551954	    -12.30653365	     23.19627652	     90.30971640	     62.34388275
      1.76250000	    -16.89154106	      0.41944899	      1.28720347	     -0.82287578	      1.25529536	     -0.11324491	     21.40894402	     -4.39592788	     -6.62437840	     37.28210305	      0.65069545	     14.98265239	    -18.79766631	     -7.49999987	     24.54843402	     -1.54642343	     -0.11473990	     41.69382157	      0.72769446	      9.69501474	     -9.82434569	     -7.49999987	    -10.75160342	      2.04039355	      0.30541574	     84.24879050	    -16.81407296	     23.13911255	     88.24768184	     82.23571373	     88.79880128	    -13.04866110	     24.28164808	     92.08366605	     62.64738658
      1.76666670	    -16.66030037	      0.38284110	      0.92361222	     -0.80475919	      1.26521826	     -0.10034289	     18.84938837	     -3.93688400	     -7.59916522	     33.71615485	      0.58845791	     13.38875976	    -16.82167986	     -7.49999987	     22.02529232	     -2.48051717	     -1.53244584	     38.86771468	      0.67836959	      7.83703250	     -7.77613361	     -7.49999987	     -9.96269080	      1.60585405	     -0.34414006	     83.48577122	    -15.21082478	     22.85768484	     88.51700532	     81.36756401	     89.35310718	    -14.19033309	     25.88284670	     93.32642515	     63.04971868
      1.77083330	    -16.60308528	      0.36305445	      0.72758290	     -0.80421424	      1.26769129	     -0.10124978	     17.28076766	     -3.64155782	     -8.07961567	     31.25276157	      0.54546359	     12.91980297	    -14.54597918	     -7.49999987	     20.88152251	     -3.08842441	     -2.50042783	     37.37790016	      0.65236743	      6.63490537	     -6.36473440	     -7.49999987	     -9.10208395	      1.27024009	     -0.53406525	     83.21658476	    -14.52365356	     22.71106777	     88.22682352	     81.86367378	     90.10889457	    -13.87704821	     26.92172489	     92.52861469	     63.32876560
      1.77500000	    -16.31070985	      0.30583471	      0.23490080	     -0.79871097	      1.27500929	     -0.10605456	     16.08823808	     -3.67307431	     -8.32749961	     29.65568932	      0.51758942	     11.24854665	    -12.31460517	     -7.49999987	     19.79585790	     -3.40295860	     -3.32795814	     36.57611085	      0.63837356	      5.09208771	     -5.68374902	     -7.49999987	     -8.51139515	      1.21308340	     -0.11509869	     83.43224397	    -14.81037057	     23.08776977	     87.88586603	     82.18536599	     90.10882760	    -13.49281920	     27.34217551	     92.19888949	     63.59302396
      1.77916670	    -16.29886049	      0.29639373	      0.36270556	     -0.79287901	      1.28542241	     -0.10264413	     14.85063625	     -3.56441429	     -8.94654894	     27.20153857	      0.47475641	      9.74099806	    -10.06622361	     -7.49999987	     18.98251745	     -3.49911867	     -3.54928395	     35.52881769	      0.62009485	      3.26987438	     -4.75896125	     -7.49999987	     -7.89994756	      1.16928209	      0.44534354	     84.90777973	    -14.76784960	     24.18216841	     86.58998897	     82.53529663	     90.89016888	    -13.32763435	     28.04414123	     91.85065743	     63.98560664
      1.78333330	    -16.01923797	      0.16564652	      0.02819172	     -0.79312158	      1.29966424	     -0.11127639	     13.89454832	     -3.70219819	     -9.40787577	     25.00554069	      0.43642902	      6.97496381	     -8.13964027	     -7.49999987	     17.88685405	     -3.30919385	     -3.70625074	     33.98442126	      0.59314005	      1.39876263	     -4.29953705	     -7.49999987	     -8.13591616	      1.69956892	      0.55271507	     86.31058566	    -14.64694761	     25.17928596	     86.49336628	     82.51139669	     91.86619656	    -13.44643776	     28.79970501	     91.95783575	     64.34094831
      1.78750000	    -15.35881191	      0.12015712	      0.70227280	     -0.78139934	      1.31252030	     -0.10399800	     12.19436551	     -3.54276186	     -9.76594149	     22.89551169	      0.39960206	      4.36841695	     -6.25713652	     -7.49999987	     15.98626383	     -3.31025503	     -4.02737582	     31.53178519	      0.55033347	     -0.96289727	     -3.66627789	     -7.49999987	     -8.36455730	      1.71825695	     -0.03072163	     85.91189519	    -14.57939589	     25.30091279	     86.88111398	     84.82540280	     92.41617211	    -13.60107975	     29.47498036	     91.80196841	     67.89008573
      1.79166670	    -15.18012426	     -0.09281945	      1.47878777	     -0.77580256	      1.31150167	     -0.10915464	     11.78795999	     -3.54819966	    -10.09880511	     22.92790409	      0.40016742	      1.70335230	     -5.62283294	     -7.49999987	     15.21701518	     -3.39445538	     -3.87967915	     30.48124693	      0.53199812	     -2.09317551	     -3.08965358	     -7.49999987	     -7.88945168	      2.21974773	     -0.29979559	     86.61132349	    -14.71453064	     25.17835704	     87.21340520	     84.82358482	     92.38779252	    -13.69258674	     29.59506788	     91.77580726	     67.93840243
      1.79583330	    -14.39515003	     -0.27063516	      2.97379867	     -0.76978275	      1.32308692	     -0.11608176	     10.27675291	     -3.59522455	    -10.63842985	     22.12994024	      0.38624032	     -1.75115762	     -6.05832187	     -7.49999987	     13.87757333	     -3.22945628	     -3.24078029	     29.17637990	      0.50922389	     -4.29526241	     -3.62455429	     -7.49999987	     -8.16775856	      2.78031817	     -1.23481457	     87.15101608	    -15.28881551	     25.47990130	     87.86382188	     84.88368176	     92.15047431	    -13.54615422	     29.52232936	     92.66304836	     68.16373398
      1.80000000	    -14.39016662	     -0.48170235	      3.38570732	     -0.76405148	      1.32750303	     -0.12093741	      9.83130000	     -3.69091737	    -10.79295056	     21.58986558	      0.37681424	     -5.68968199	     -5.63491548	     -7.49999987	     13.10670242	     -3.06205992	     -2.94316480	     27.52115910	      0.48033484	     -6.09193225	     -3.87053726	     -7.49999987	     -7.63240959	      3.64988185	     -1.93284631	     87.78362462	    -15.09860794	     26.46333586	     87.87015185	     85.09520472	     91.78245590	    -13.85841824	     28.71476783	     93.44502185	     68.68379370
      1.80416670	    -14.31944946	     -0.57542420	      3.49484422	     -0.75263531	      1.33794380	     -0.12314972	      9.00448891	     -3.67229838	    -10.73923397	     20.48627700	      0.35755299	     -8.72027523	     -4.14161398	     -7.49999987	     12.28370074	     -3.10516359	     -3.24205872	     26.37397810	      0.46031275	     -9.29550613	     -4.31059324	     -7.49999987	     -6.94938893	      3.99971522	     -2.49957198	     87.73158230	    -14.71914584	     26.37616502	     87.98785649	     85.21451822	     91.33729745	    -14.34214542	     28.39666464	     94.00006958	     69.04585178
      1.80833330	    -14.51112034	     -0.65396126	      3.32153519	     -0.75286041	      1.35478369	     -0.12265094	      8.47926774	     -3.48466820	    -10.45049618	     18.57844590	      0.32425505	    -11.54798137	     -2.87718550	     -7.49999987	     12.06838718	     -3.09646544	     -2.97162987	     24.77589440	      0.43242093	    -12.93588893	     -4.22776015	     -7.49999987	     -6.54606900	      4.38901273	     -2.83946820	     88.07520552	    -13.87262131	     26.46680186	     88.10783767	     85.92652863	     91.08275653	    -15.23276473	     28.12093318	     94.94886181	     70.67635682
      1.81250000	    -14.58110770	     -0.54030747	      2.91986206	     -0.75215273	      1.36139248	     -0.12298118	      8.67532981	     -3.63930368	     -9.93462838	     17.62951020	      0.30769300	    -15.48647966	     -3.02732452	     -7.49999987	     11.90048439	     -3.01692042	     -2.89802304	     23.14645963	      0.40398193	    -17.18076724	     -3.63073078	     -7.49999987	     -6.26523659	      4.40320132	     -2.69914047	     87.86928922	    -13.73223197	     26.41974240	     88.68095345	     86.04779221	     90.72175927	    -15.94250102	     28.07167236	     95.51763772	     70.87689739
      1.81666670	    -14.90514141	     -0.55967581	      2.72272541	     -0.75200052	      1.36406066	     -0.12278688	      9.08437686	     -3.66673073	     -9.77601369	     16.76270228	      0.29256435	    -19.74182959	     -3.40374878	     -7.49999987	     12.68523872	     -2.99385011	     -2.76725907	     22.71615308	      0.39647166	    -21.36788563	     -3.35068689	     -7.49999987	     -6.36876322	      4.55203248	     -2.63323580	     89.22515947	    -13.32280174	     26.49621264	     88.97753583	     86.22152084	     92.05348980	    -16.01429016	     27.85896719	     95.97312408	     71.18173283
